<svg xmlns="http://www.w3.org/2000/svg" viewBox="0 0 200 200">
  <defs>
    <style>.cls-1{isolation:isolate;}.cls-2{fill:#c3073e;}.cls-3{fill:#023086;}</style>
  </defs>
  <!-- White circular background -->
  <circle cx="100" cy="100" r="100" fill="#ffffff"/>
  <!-- Logo centered with padding -->
  <g id="Page_1" data-name="Page 1" class="cls-1" transform="translate(5, 2)">
    <g id="Path_4" data-name="Path 4"><path class="cls-2" d="M166.78,59.16c-6.29,5.45-15.65,11.46-27.24,17.39l5.72,15.7c11-5.94,20.32-12.3,26.78-18.66Z"/></g>
    <g id="Path_5" data-name="Path 5"><path class="cls-3" d="M140.58,39.75c-7.22,5.29-17.48,11-29.84,16.37L116,70.43c11.44-5.24,21.79-11.07,29.64-16.92Z"/></g>
    <g id="Path_6" data-name="Path 6"><path class="cls-2" d="M110.55,26.73A141.36,141.36,0,0,1,84,38.87L88.4,51a149.77,149.77,0,0,0,25.29-12.12l1-.64Z"/></g>
    <g id="Path_7" data-name="Path 7"><path class="cls-3" d="M127.62,148.73,131.71,160a223.9,223.9,0,0,0,26.63-12l-3.86-10.6A285.3,285.3,0,0,1,127.62,148.73Zm46.27-37.35-5.08-14a245.2,245.2,0,0,1-36.34,18.37L138,131C151.7,125.17,164.26,118.47,173.89,111.38Z"/></g>
    <g id="Path_8" data-name="Path 8"><path class="cls-3" d="M133.41,79.57A303.4,303.4,0,0,1,103.3,91.89l5.94,16.32a281.82,281.82,0,0,0,29.94-12.79Z"/></g>
    <g id="Path_9" data-name="Path 9"><path class="cls-2" d="M131.73,133.6l-5.56-15.28A359,359,0,0,1,90.86,130l5.52,15.16A304.51,304.51,0,0,0,131.73,133.6ZM97,158.24c-19.79,4.81-45.37,9-54.8,1.4,2.52,2.46,6,5.58,8.7,7.87l3,2.25c10.51,7.46,41.46,2.93,71.47-7.47L121.21,151C113.49,153.63,105.37,156.08,97,158.24Z"/></g>
    <g id="Path_10" data-name="Path 10"><path class="cls-2" d="M122.1,184c-7.64,1.84-12.15,2.49-17.88,2.57,2.73,0,2.92,0,7.89-.22,2.25-.17,2.48-.2,6.33-.69,1.74-.26,1.87-.28,5-.89,1.46-.3,1.57-.33,4.29-1,1.3-.33,1.35-.35,3.86-1.09,1.22-.37,1.27-.39,3.64-1.2,1.2-.43,1.2-.43,3.59-1.37,1.25-.51,1.25-.51,3.75-1.62,1.37-.63,1.37-.63,4.09-2a93,93,0,0,0,14.81-9.79C158.31,169.17,146,177.79,122.1,184ZM75.63,100.27c-34.56,8.43-56.89,7.47-58.26-2.51v1.61c.18,3.84.65,9,1.1,12.79.55,2.08,1.45,5.57,8.36,8.13,14.89,5.52,45.74.38,76-9.84l-6-16.38C90,96.31,82.93,98.39,75.63,100.27Z"/></g>
    <g id="Path_11" data-name="Path 11"><path class="cls-3" d="M23.78,131.26c1.64,5.62,4,12.38,9.53,16.42,8.61,6.28,31,5.1,56.44-.85l-5.48-15.06C50.79,139.86,28.75,139.68,23.78,131.26ZM49,90c17.85-1.61,40.49-8.17,60.7-16.77l-5.26-14.45a275.53,275.53,0,0,1-33.81,11c-25.9,6.33-50.43,7.39-46.84-4.55,0,0-3.56,7.22-4.1,12.9C18.43,91.62,39.34,90.82,49,90Z"/></g>
    <g id="Path_12" data-name="Path 12"><path class="cls-3" d="M77.53,41c-2.4.72-4.84,1.41-7.33,2A95.15,95.15,0,0,1,51,46c-4.15.13-17-.18-8.33-9.62a84,84,0,0,0-7.27,8.43l-1.17,1.58a14.91,14.91,0,0,0-2.49,5.05C29.33,62.91,54.83,62.15,82,53.22Z"/></g>
    <g id="Path_13" data-name="Path 13"><path class="cls-2" d="M83.13,20a52.11,52.11,0,0,1-8.69,3c-6.35,1.62-8.48.77-9,.47-2.21-1.31,2.18-5.21,12-8.72-11.9,3.68-23.36,11.17-24,15.71-1,6.65,17.59,4,32.5-2.81Z"/></g>
    <g id="Path_14" data-name="Path 14"><path class="cls-3" d="M146.33,163.75a248.62,248.62,0,0,1-28.3,10.1l2.45,6.75A171.51,171.51,0,0,0,148.62,170Zm-36.51,12.37c-28.59,6.93-37.45,3.71-40.36,2.66,2,.89,4.76,1.92,6.8,2.72,2.74.91,6.45,2,9.23,2.71,7.43,1.39,17.52.51,28.37-2l-2.39-6.58Z"/></g>
  </g>
</svg>
